<svg width="1920" height="1080" viewBox="0 0 1920 1080" fill="none" xmlns="http://www.w3.org/2000/svg">
<rect width="1920" height="1080" fill="#02040A"/>
<rect width="1920" height="1080" fill="url(#base)"/>
<g filter="url(#blur-large)">
<ellipse cx="300" cy="170" rx="260" ry="190" fill="url(#left-top-glow)" opacity="0.72"/>
<ellipse cx="1540" cy="210" rx="320" ry="250" fill="url(#top-glow)"/>
<ellipse cx="430" cy="850" rx="440" ry="280" fill="url(#bottom-glow)"/>
<ellipse cx="980" cy="520" rx="210" ry="150" fill="url(#center-glow)"/>
</g>
<g opacity="0.76">
<circle cx="324" cy="224" r="126" stroke="url(#ring-left-top)" stroke-width="2"/>
<circle cx="324" cy="224" r="84" stroke="rgba(255,255,255,0.08)" stroke-width="1.5"/>
<circle cx="1520" cy="336" r="152" stroke="url(#ring-blue)" stroke-width="2.2"/>
<circle cx="1520" cy="336" r="104" stroke="rgba(255,255,255,0.15)" stroke-width="1.6"/>
<circle cx="418" cy="842" r="172" stroke="url(#ring-violet)" stroke-width="2.2"/>
<circle cx="418" cy="842" r="118" stroke="rgba(255,255,255,0.12)" stroke-width="1.6"/>
</g>
<g opacity="0.28">
<path d="M0 156C242 112 458 110 702 184C942 256 1124 268 1384 212C1620 160 1772 140 1920 158V0H0V156Z" fill="#081124"/>
<path d="M0 930C236 878 454 862 696 912C938 962 1164 990 1414 914C1642 844 1778 834 1920 846V1080H0V930Z" fill="#060B18"/>
</g>
<g opacity="0.2">
<path d="M1388 340C1450 298 1516 286 1594 286" stroke="#D7E4FF" stroke-width="1.2" stroke-linecap="round"/>
<path d="M1388 366C1450 330 1518 320 1594 320" stroke="#D7E4FF" stroke-width="1.2" stroke-linecap="round"/>
<path d="M310 842C372 806 444 792 520 792" stroke="#E3D9FF" stroke-width="1.2" stroke-linecap="round"/>
<path d="M310 868C374 836 448 824 524 824" stroke="#E3D9FF" stroke-width="1.2" stroke-linecap="round"/>
</g>
<g opacity="0.18">
<circle cx="212" cy="208" r="2.2" fill="#FFFFFF"/>
<circle cx="292" cy="176" r="1.4" fill="#FFFFFF"/>
<circle cx="1622" cy="154" r="2" fill="#FFFFFF"/>
<circle cx="1700" cy="198" r="1.4" fill="#FFFFFF"/>
<circle cx="1450" cy="906" r="1.8" fill="#FFFFFF"/>
<circle cx="1010" cy="888" r="1.8" fill="#FFFFFF"/>
</g>
<defs>
<filter id="blur-large" x="-80" y="-80" width="2080" height="1240" filterUnits="userSpaceOnUse" color-interpolation-filters="sRGB">
<feGaussianBlur stdDeviation="110"/>
</filter>
<linearGradient id="base" x1="0" y1="0" x2="1920" y2="1080" gradientUnits="userSpaceOnUse">
<stop stop-color="#02040A"/>
<stop offset="0.38" stop-color="#060B15"/>
<stop offset="0.72" stop-color="#071122"/>
<stop offset="1" stop-color="#020306"/>
</linearGradient>
<radialGradient id="top-glow" cx="0" cy="0" r="1" gradientUnits="userSpaceOnUse" gradientTransform="translate(1540 210) rotate(90) scale(250 320)">
<stop stop-color="#5B86FF" stop-opacity="0.92"/>
<stop offset="1" stop-color="#5B86FF" stop-opacity="0"/>
</radialGradient>
<radialGradient id="left-top-glow" cx="0" cy="0" r="1" gradientUnits="userSpaceOnUse" gradientTransform="translate(300 170) rotate(90) scale(190 260)">
<stop stop-color="#67C4FF" stop-opacity="0.68"/>
<stop offset="1" stop-color="#67C4FF" stop-opacity="0"/>
</radialGradient>
<radialGradient id="bottom-glow" cx="0" cy="0" r="1" gradientUnits="userSpaceOnUse" gradientTransform="translate(430 850) rotate(90) scale(280 440)">
<stop stop-color="#8A6BFF" stop-opacity="0.82"/>
<stop offset="1" stop-color="#8A6BFF" stop-opacity="0"/>
</radialGradient>
<radialGradient id="center-glow" cx="0" cy="0" r="1" gradientUnits="userSpaceOnUse" gradientTransform="translate(980 520) rotate(90) scale(150 210)">
<stop stop-color="#39D7FF" stop-opacity="0.56"/>
<stop offset="1" stop-color="#39D7FF" stop-opacity="0"/>
</radialGradient>
<linearGradient id="ring-blue" x1="1360" y1="246" x2="1654" y2="470" gradientUnits="userSpaceOnUse">
<stop stop-color="#D3E0FF" stop-opacity="0.16"/>
<stop offset="1" stop-color="#5B86FF" stop-opacity="0.82"/>
</linearGradient>
<linearGradient id="ring-left-top" x1="204" y1="120" x2="456" y2="330" gradientUnits="userSpaceOnUse">
<stop stop-color="#D7F1FF" stop-opacity="0.14"/>
<stop offset="1" stop-color="#67C4FF" stop-opacity="0.62"/>
</linearGradient>
<linearGradient id="ring-violet" x1="258" y1="724" x2="586" y2="944" gradientUnits="userSpaceOnUse">
<stop stop-color="#E5DFFF" stop-opacity="0.12"/>
<stop offset="1" stop-color="#8A6BFF" stop-opacity="0.76"/>
</linearGradient>
</defs>
</svg>
